<svg id="Layer_1" data-name="Layer 1" xmlns="http://www.w3.org/2000/svg" viewBox="0 0 80 80"><defs><style>.cls-1{fill:#fff;}.cls-2{fill:#2a3f47;}</style></defs><title>90minutos-icon</title><circle class="cls-1" cx="40" cy="40" r="40"/><path class="cls-2" d="M4604,2735a22.5,22.5,0,0,1-15.94-38.38,1.5,1.5,0,1,1,2.12,2.12,19.5,19.5,0,1,0,15.32-5.68v8.07a1.5,1.5,0,0,1-3,0v-9.62a1.5,1.5,0,0,1,1.5-1.5,22.5,22.5,0,0,1,0,45h0Zm0,0" transform="translate(-4563.55 -2672.48)"/><path class="cls-2" d="M4596.51,2705.07l9.71,7a1.92,1.92,0,1,1-2.68,2.69Zm0,0" transform="translate(-4563.55 -2672.48)"/></svg>