<svg id="Layer_1" data-name="Layer 1" xmlns="http://www.w3.org/2000/svg" viewBox="0 0 26.25 25"><defs><style>.cls-1{fill:#fff;}</style></defs><title>account</title><path class="cls-1" d="M2780.27,1321a7,7,0,1,0-7-7,7,7,0,0,0,7,7h0Zm0-12.2a5.17,5.17,0,1,1-5.17,5.17,5.19,5.19,0,0,1,5.17-5.17h0Zm0,0" transform="translate(-2767.19 -1306.97)"/><path class="cls-1" d="M2768.12,1332h24.4a0.92,0.92,0,0,0,.93-0.93,8.82,8.82,0,0,0-8.82-8.81H2776a8.82,8.82,0,0,0-8.81,8.81,0.92,0.92,0,0,0,.93.93h0Zm7.89-7.89h8.62a7,7,0,0,1,6.9,6h-22.41a7,7,0,0,1,6.9-6h0Zm0,0" transform="translate(-2767.19 -1306.97)"/></svg>