<svg id="Layer_1" data-name="Layer 1" xmlns="http://www.w3.org/2000/svg" viewBox="0 0 80 80"><defs><style>.cls-1{fill:#fff;}.cls-2{fill:#2a3f47;}</style></defs><title>enlinea-icon</title><circle class="cls-1" cx="40" cy="40" r="40"/><path class="cls-2" d="M4585.81,2589.86a23.25,23.25,0,0,0,0,32.86,1.29,1.29,0,0,0,1.82-1.83,20.67,20.67,0,0,1,0-29.2A1.29,1.29,0,0,0,4585.81,2589.86Z" transform="translate(-4561.51 -2566.29)"/><path class="cls-2" d="M4585.23,2606.29a18.23,18.23,0,0,0,5.37,13,1.29,1.29,0,1,0,1.83-1.83,15.79,15.79,0,0,1,0-22.31,1.29,1.29,0,0,0-1.83-1.83A18.23,18.23,0,0,0,4585.23,2606.29Z" transform="translate(-4561.51 -2566.29)"/><path class="cls-2" d="M4591.44,2606.29a13.39,13.39,0,0,0,3.94,9.53,1.29,1.29,0,1,0,1.83-1.82,10.91,10.91,0,0,1,0-15.41,1.29,1.29,0,1,0-1.83-1.83A13.39,13.39,0,0,0,4591.44,2606.29Z" transform="translate(-4561.51 -2566.29)"/><circle class="cls-2" cx="40" cy="40" r="3.84"/><path class="cls-2" d="M4617.21,2622.71a23.25,23.25,0,0,0,0-32.86,1.29,1.29,0,0,0-1.82,1.83,20.67,20.67,0,0,1,0,29.2A1.29,1.29,0,0,0,4617.21,2622.71Z" transform="translate(-4561.51 -2566.29)"/><path class="cls-2" d="M4617.79,2606.29a18.23,18.23,0,0,0-5.37-13,1.29,1.29,0,1,0-1.83,1.83,15.79,15.79,0,0,1,0,22.31,1.29,1.29,0,0,0,1.83,1.83A18.23,18.23,0,0,0,4617.79,2606.29Z" transform="translate(-4561.51 -2566.29)"/><path class="cls-2" d="M4611.58,2606.29a13.39,13.39,0,0,0-3.94-9.53,1.29,1.29,0,1,0-1.83,1.82,10.91,10.91,0,0,1,0,15.41,1.29,1.29,0,1,0,1.83,1.83A13.39,13.39,0,0,0,4611.58,2606.29Z" transform="translate(-4561.51 -2566.29)"/></svg>