<svg id="Layer_1" data-name="Layer 1" xmlns="http://www.w3.org/2000/svg" viewBox="0 0 25 25"><defs><style>.cls-1{fill:#439aca;}</style></defs><title>time</title><path class="cls-1" d="M2141.24,1567.59a12.5,12.5,0,0,1-8.85-21.32,0.83,0.83,0,1,1,1.18,1.18,10.83,10.83,0,1,0,8.51-3.15v4.48a0.83,0.83,0,0,1-1.67,0v-5.35a0.84,0.84,0,0,1,.83-0.83,12.5,12.5,0,0,1,0,25h0Zm0,0" transform="translate(-2128.74 -1542.59)"/><path class="cls-1" d="M2137.07,1551l5.39,3.9a1.07,1.07,0,1,1-1.49,1.49Zm0,0" transform="translate(-2128.74 -1542.59)"/></svg>