<svg id="Layer_1" data-name="Layer 1" xmlns="http://www.w3.org/2000/svg" viewBox="0 0 23.37 25"><defs><style>.cls-1{fill:#439aca;}</style></defs><title>calendar</title><path class="cls-1" d="M2026.56,1544.22H2024v-1a0.66,0.66,0,0,0-.66-0.66h-2.86a0.66,0.66,0,0,0-.66.66v1h-8.47v-1a0.66,0.66,0,0,0-.66-0.66h-2.86a0.66,0.66,0,0,0-.66.66v1h-2.6a0.66,0.66,0,0,0-.66.66v22a0.66,0.66,0,0,0,.66.66h22a0.66,0.66,0,0,0,.66-0.66v-22A0.66,0.66,0,0,0,2026.56,1544.22Zm-0.66,5.82v16.22h-20.71V1550h20.71Zm-17.45-4.19v-1.94H2010v1.94h-1.53Zm14.18-1.94v1.94h-1.53v-1.94h1.53Zm-14.85,3.26h2.86a0.66,0.66,0,0,0,.66-0.66v-1h8.47v1a0.66,0.66,0,0,0,.66.66h2.86a0.66,0.66,0,0,0,.66-0.66v-1h1.94v3.16h-20.71v-3.16h1.94v1A0.66,0.66,0,0,0,2007.79,1547.18Z" transform="translate(-2003.86 -1542.59)"/><path class="cls-1" d="M2023.55,1552h-16v12.35h16V1552Zm-14.69,3.68v-2.35h2.35v2.35h-2.35Zm0,3.67V1557h2.35v2.35h-2.35Zm0,3.67v-2.35h2.35V1563h-2.35Zm3.67-7.35v-2.35h2.35v2.35h-2.35Zm0,3.67V1557h2.35v2.35h-2.35Zm0,3.67v-2.35h2.35V1563h-2.35Zm3.67-7.35v-2.35h2.35v2.35h-2.35Zm0,3.67V1557h2.35v2.35h-2.35Zm0,3.67v-2.35h2.35V1563h-2.35Zm3.67-7.35v-2.35h2.35v2.35h-2.35Zm0,3.67V1557h2.35v2.35h-2.35Zm0,3.67v-2.35h2.35V1563h-2.35Z" transform="translate(-2003.86 -1542.59)"/></svg>