<?xml version="1.0" encoding="utf-8"?>
<!-- Generator: Adobe Illustrator 18.1.1, SVG Export Plug-In . SVG Version: 6.00 Build 0)  -->
<svg version="1.1" id="Layer_1" xmlns="http://www.w3.org/2000/svg" xmlns:xlink="http://www.w3.org/1999/xlink" x="0px" y="0px"
	 viewBox="0 0 26.2 25" enable-background="new 0 0 26.2 25" xml:space="preserve">
<g>
	<g>
		<path fill="#4DB1AD" d="M13.1,14c3.9,0,7-3.1,7-7c0-3.9-3.1-7-7-7c-3.9,0-7,3.1-7,7S9.2,14,13.1,14L13.1,14z M13.1,1.8
			c2.8,0,5.2,2.3,5.2,5.2s-2.3,5.2-5.2,5.2c-2.8,0-5.2-2.3-5.2-5.2S10.2,1.8,13.1,1.8L13.1,1.8z M13.1,1.8"/>
		<path fill="#4DB1AD" d="M0.9,25h24.4c0.5,0,0.9-0.4,0.9-0.9c0-4.8-3.9-8.8-8.8-8.8H8.8C4,15.3,0,19.2,0,24.1C0,24.6,0.4,25,0.9,25
			L0.9,25z M8.8,17.1h8.6c3.5,0,6.4,2.6,6.9,6H1.9C2.4,19.8,5.3,17.1,8.8,17.1L8.8,17.1z M8.8,17.1"/>
	</g>
</g>
</svg>
