<svg id="Layer_1" data-name="Layer 1" xmlns="http://www.w3.org/2000/svg" viewBox="0 0 50 50"><defs><style>.cls-1{fill:#4db1ad;}</style></defs><title>instagram</title><path class="cls-1" d="M5087.39,4226.26h-14.9a4.32,4.32,0,0,0-4.31,4.31v14.9a4.32,4.32,0,0,0,4.31,4.32h14.9a4.32,4.32,0,0,0,4.31-4.32v-14.9a4.32,4.32,0,0,0-4.31-4.31h0Zm-7.45,19.51a7.75,7.75,0,1,1,7.75-7.75,7.76,7.76,0,0,1-7.75,7.75h0Zm8-13.89a1.83,1.83,0,1,1,1.83-1.83,1.83,1.83,0,0,1-1.83,1.83h0Zm0,0" transform="translate(-5054.94 -4212.95)"/><path class="cls-1" d="M5079.94,4233.55a4.47,4.47,0,1,0,4.47,4.47,4.48,4.48,0,0,0-4.47-4.47h0Zm0,0" transform="translate(-5054.94 -4212.95)"/><path class="cls-1" d="M5079.94,4213a25,25,0,1,0,25,25,25,25,0,0,0-25-25h0Zm15,32.52a7.59,7.59,0,0,1-7.59,7.59h-14.9a7.6,7.6,0,0,1-7.59-7.59v-14.9a7.6,7.6,0,0,1,7.59-7.59h14.9a7.6,7.6,0,0,1,7.59,7.59v14.9Zm0,0" transform="translate(-5054.94 -4212.95)"/></svg>