<?xml version="1.0" encoding="utf-8"?>
<!-- Generator: Adobe Illustrator 18.1.1, SVG Export Plug-In . SVG Version: 6.00 Build 0)  -->
<svg version="1.1" id="Layer_1" xmlns="http://www.w3.org/2000/svg" xmlns:xlink="http://www.w3.org/1999/xlink" x="0px" y="0px"
	 viewBox="0 0 80 28" enable-background="new 0 0 80 28" xml:space="preserve">
<g>
	<rect fill="#439ACA" width="80" height="28"/>
	<g>
		<g>
			<path fill="#FFFFFF" d="M9.6,18.2V9.7h1.2v8.5H9.6z"/>
			<path fill="#FFFFFF" d="M18.7,9.7h1.2v8.5h-0.9L14,11.8v6.5h-1.2V9.7h0.9l4.9,6.5V9.7z"/>
			<path fill="#FFFFFF" d="M21.9,18.2V9.7h1.2v8.5H21.9z"/>
			<path fill="#FFFFFF" d="M26.7,17.8c-0.6-0.4-1.1-0.9-1.4-1.5c-0.3-0.7-0.5-1.4-0.5-2.3c0-0.9,0.2-1.7,0.5-2.3
				c0.3-0.7,0.8-1.2,1.4-1.5c0.6-0.4,1.3-0.5,2.2-0.5c0.6,0,1.1,0.1,1.6,0.3s0.9,0.4,1.3,0.8l-0.4,0.9c-0.4-0.3-0.8-0.6-1.2-0.7
				c-0.4-0.1-0.8-0.2-1.3-0.2c-0.9,0-1.6,0.3-2.1,0.9c-0.5,0.6-0.7,1.4-0.7,2.5c0,1.1,0.2,1.9,0.7,2.5c0.5,0.6,1.2,0.9,2.1,0.9
				c0.5,0,0.9-0.1,1.3-0.2c0.4-0.1,0.8-0.4,1.2-0.7l0.4,0.9c-0.3,0.3-0.8,0.6-1.3,0.8s-1,0.3-1.6,0.3C28,18.3,27.3,18.1,26.7,17.8z"
				/>
			<path fill="#FFFFFF" d="M33.3,18.2V9.7h1.2v8.5H33.3z"/>
			<path fill="#FFFFFF" d="M43.1,18.2l-0.9-2.1h-4.3l-0.9,2.1h-1.3l3.8-8.5h1l3.8,8.5H43.1z M38.3,15.1h3.5L40,11.1L38.3,15.1z"/>
			<path fill="#FFFFFF" d="M52.3,18.2H51l-1.1-2.8c-0.1-0.3-0.3-0.5-0.5-0.6c-0.2-0.1-0.5-0.2-0.9-0.2h-1.9v3.6h-1.2V9.7h3.5
				c0.9,0,1.7,0.2,2.2,0.6s0.8,1,0.8,1.8c0,0.6-0.1,1-0.4,1.4c-0.3,0.4-0.7,0.7-1.3,0.8c0.5,0.1,0.9,0.4,1.1,1.1L52.3,18.2z
				 M48.8,13.6c0.6,0,1.1-0.1,1.4-0.4c0.3-0.2,0.5-0.6,0.5-1.1c0-0.5-0.1-0.8-0.4-1.1c-0.3-0.2-0.8-0.4-1.4-0.4h-2.1v2.9H48.8z"/>
		</g>
		<polygon fill="#EEEEEE" points="59.4,6 59.4,22 71.4,14 		"/>
	</g>
</g>
</svg>
