<?xml version="1.0" encoding="utf-8"?>
<!-- Generator: Adobe Illustrator 18.1.1, SVG Export Plug-In . SVG Version: 6.00 Build 0)  -->
<svg version="1.1" id="Layer_1" xmlns="http://www.w3.org/2000/svg" xmlns:xlink="http://www.w3.org/1999/xlink" x="0px" y="0px"
	 viewBox="0 0 100 25" enable-background="new 0 0 100 25" xml:space="preserve">
<g>
	<g>
		<g>
			<path fill="#FFFFFF" d="M32.8,21.8h0.6h0.1c0.3,0,0.5,0.1,0.6,0.2c0.1,0.1,0.2,0.3,0.2,0.5c0,0.2-0.1,0.4-0.2,0.5
				c-0.1,0.1-0.4,0.2-0.7,0.2h-0.4v0.9h-0.2V21.8z M33.1,22v1h0.4h0.1c0.2,0,0.3,0,0.4-0.1c0.1-0.1,0.2-0.2,0.2-0.4
				c0-0.2-0.1-0.3-0.2-0.4C33.9,22,33.7,22,33.5,22h-0.1H33.1z"/>
			<path fill="#FFFFFF" d="M34.7,23.5c0,0.1,0,0.2,0.1,0.3c0.1,0.1,0.2,0.1,0.4,0.1c0.1,0,0.2,0,0.3-0.1c0.1-0.1,0.1-0.2,0.1-0.4
				c0-0.1,0-0.2-0.1-0.3c-0.1-0.1-0.2-0.2-0.5-0.2c-0.4-0.1-0.6-0.3-0.6-0.6c0-0.2,0.1-0.3,0.2-0.5c0.1-0.1,0.3-0.2,0.5-0.2
				c0.2,0,0.3,0.1,0.5,0.2c0.1,0.1,0.2,0.3,0.2,0.5h-0.2c0-0.1,0-0.2-0.1-0.3c-0.1-0.1-0.2-0.1-0.3-0.1c-0.1,0-0.2,0-0.3,0.1
				c-0.1,0.1-0.1,0.2-0.1,0.3c0,0.1,0,0.2,0.1,0.2c0.1,0.1,0.2,0.1,0.4,0.2c0.4,0.1,0.6,0.3,0.6,0.7c0,0.2-0.1,0.4-0.2,0.5
				c-0.1,0.1-0.3,0.2-0.5,0.2c-0.2,0-0.4-0.1-0.5-0.2c-0.1-0.1-0.2-0.3-0.2-0.5H34.7z"/>
			<path fill="#FFFFFF" d="M36.3,21.8h0.2v2.4h-0.2V21.8z"/>
			<path fill="#FFFFFF" d="M39,23.5h0.3c-0.3,0.4-0.6,0.6-1.1,0.6c-0.3,0-0.6-0.1-0.9-0.4c-0.2-0.2-0.4-0.5-0.4-0.8
				c0-0.3,0.1-0.6,0.4-0.9c0.2-0.2,0.5-0.4,0.9-0.4c0.2,0,0.4,0.1,0.6,0.2c0.2,0.1,0.3,0.3,0.4,0.5h-0.3c-0.1-0.1-0.2-0.2-0.4-0.3
				c-0.1-0.1-0.3-0.1-0.4-0.1c-0.3,0-0.5,0.1-0.7,0.3c-0.2,0.2-0.3,0.4-0.3,0.7c0,0.3,0.1,0.5,0.3,0.7c0.2,0.2,0.4,0.3,0.7,0.3
				C38.5,23.9,38.7,23.8,39,23.5z"/>
			<path fill="#FFFFFF" d="M39.5,23c0-0.3,0.1-0.6,0.4-0.9c0.2-0.2,0.5-0.4,0.9-0.4c0.3,0,0.6,0.1,0.9,0.4c0.2,0.2,0.4,0.5,0.4,0.9
				c0,0.3-0.1,0.6-0.4,0.9c-0.2,0.2-0.5,0.4-0.9,0.4c-0.3,0-0.6-0.1-0.9-0.4C39.6,23.6,39.5,23.3,39.5,23z M39.7,23
				c0,0.3,0.1,0.5,0.3,0.7c0.2,0.2,0.4,0.3,0.7,0.3c0.3,0,0.5-0.1,0.7-0.3c0.2-0.2,0.3-0.4,0.3-0.7c0-0.3-0.1-0.5-0.3-0.7
				c-0.2-0.2-0.4-0.3-0.7-0.3c-0.3,0-0.5,0.1-0.7,0.3C39.8,22.4,39.7,22.7,39.7,23z"/>
			<path fill="#FFFFFF" d="M42.1,21.8h1.3V22h-0.5v2.1h-0.2V22h-0.5V21.8z"/>
			<path fill="#FFFFFF" d="M43.7,24.1v-2.4H45V22h-1v0.9h1V23h-1v0.9h1v0.2H43.7z"/>
			<path fill="#FFFFFF" d="M47,22.5c0,0.2-0.1,0.3-0.2,0.5c-0.1,0.1-0.3,0.2-0.5,0.2l0.7,0.9h-0.3L45.9,23l0.3,0
				c0.2,0,0.4-0.1,0.5-0.2c0.1-0.1,0.1-0.2,0.1-0.4c0-0.1-0.1-0.3-0.2-0.4C46.5,22,46.3,22,46.1,22h-0.4v2.1h-0.2v-2.4H46
				c0.2,0,0.4,0,0.5,0.1c0.2,0.1,0.3,0.2,0.4,0.3C47,22.2,47,22.4,47,22.5z"/>
			<path fill="#FFFFFF" d="M47.1,24.1l1-2.4h0.3l1,2.4h-0.3l-0.3-0.8h-1.1l-0.3,0.8H47.1z M47.8,23.1h0.9L48.3,22L47.8,23.1z"/>
			<path fill="#FFFFFF" d="M49.7,21.8h0.6h0.1c0.3,0,0.5,0.1,0.6,0.2c0.1,0.1,0.2,0.3,0.2,0.5c0,0.2-0.1,0.4-0.2,0.5
				c-0.1,0.1-0.4,0.2-0.7,0.2h-0.4v0.9h-0.2V21.8z M49.9,22v1h0.4h0.1c0.2,0,0.3,0,0.4-0.1c0.1-0.1,0.2-0.2,0.2-0.4
				c0-0.2-0.1-0.3-0.2-0.4C50.7,22,50.6,22,50.4,22h-0.1H49.9z"/>
			<path fill="#FFFFFF" d="M51.6,21.8h0.2v2.4h-0.2V21.8z"/>
			<path fill="#FFFFFF" d="M52.1,24.1l1-2.4h0.3l1,2.4h-0.3l-0.3-0.8h-1.1l-0.3,0.8H52.1z M52.7,23.1h0.9L53.2,22L52.7,23.1z"/>
			<path fill="#FFFFFF" d="M55.6,23.5c0,0.1,0,0.2,0.1,0.3c0.1,0.1,0.2,0.1,0.4,0.1c0.1,0,0.2,0,0.3-0.1c0.1-0.1,0.1-0.2,0.1-0.4
				c0-0.1,0-0.2-0.1-0.3c-0.1-0.1-0.2-0.2-0.5-0.2c-0.4-0.1-0.6-0.3-0.6-0.6c0-0.2,0.1-0.3,0.2-0.5c0.1-0.1,0.3-0.2,0.5-0.2
				c0.2,0,0.3,0.1,0.5,0.2c0.1,0.1,0.2,0.3,0.2,0.5h-0.2c0-0.1,0-0.2-0.1-0.3c-0.1-0.1-0.2-0.1-0.3-0.1c-0.1,0-0.2,0-0.3,0.1
				c-0.1,0.1-0.1,0.2-0.1,0.3c0,0.1,0,0.2,0.1,0.2c0.1,0.1,0.2,0.1,0.4,0.2c0.4,0.1,0.6,0.3,0.6,0.7c0,0.2-0.1,0.4-0.2,0.5
				c-0.1,0.1-0.3,0.2-0.5,0.2c-0.2,0-0.4-0.1-0.5-0.2c-0.1-0.1-0.2-0.3-0.2-0.5H55.6z"/>
			<path fill="#FFFFFF" d="M57.1,21.8h0.2v2.4h-0.2V21.8z"/>
			<path fill="#FFFFFF" d="M57.8,21.8h0.3l1.3,2v-2h0.2v2.4h-0.2L58,22v2.1h-0.2V21.8z"/>
			<path fill="#FFFFFF" d="M61,24.1v-2.4h1.2V22h-0.9v0.9h0.9V23h-0.9v1.1H61z"/>
			<path fill="#FFFFFF" d="M64.2,22.5c0,0.2-0.1,0.3-0.2,0.5c-0.1,0.1-0.3,0.2-0.5,0.2l0.7,0.9h-0.3L63,23l0.3,0
				c0.2,0,0.4-0.1,0.5-0.2c0.1-0.1,0.1-0.2,0.1-0.4c0-0.1-0.1-0.3-0.2-0.4C63.7,22,63.5,22,63.2,22h-0.4v2.1h-0.2v-2.4h0.6
				c0.2,0,0.4,0,0.5,0.1c0.2,0.1,0.3,0.2,0.4,0.3C64.1,22.2,64.2,22.4,64.2,22.5z"/>
			<path fill="#FFFFFF" d="M64.4,23c0-0.3,0.1-0.6,0.4-0.9c0.2-0.2,0.5-0.4,0.9-0.4c0.3,0,0.6,0.1,0.9,0.4c0.2,0.2,0.4,0.5,0.4,0.9
				c0,0.3-0.1,0.6-0.4,0.9c-0.2,0.2-0.5,0.4-0.9,0.4c-0.3,0-0.6-0.1-0.9-0.4C64.5,23.6,64.4,23.3,64.4,23z M64.6,23
				c0,0.3,0.1,0.5,0.3,0.7c0.2,0.2,0.4,0.3,0.7,0.3c0.3,0,0.5-0.1,0.7-0.3c0.2-0.2,0.3-0.4,0.3-0.7c0-0.3-0.1-0.5-0.3-0.7
				c-0.2-0.2-0.4-0.3-0.7-0.3c-0.3,0-0.5,0.1-0.7,0.3C64.7,22.4,64.6,22.7,64.6,23z"/>
			<path fill="#FFFFFF" d="M67.3,21.8h0.3l1.3,2v-2h0.2v2.4h-0.2L67.5,22v2.1h-0.2V21.8z"/>
			<path fill="#FFFFFF" d="M69.4,21.8h1.3V22h-0.5v2.1h-0.2V22h-0.5V21.8z"/>
			<path fill="#FFFFFF" d="M71,24.1v-2.4h1.3V22h-1v0.9h1V23h-1v0.9h1v0.2H71z"/>
			<path fill="#FFFFFF" d="M74.3,22.5c0,0.2-0.1,0.3-0.2,0.5c-0.1,0.1-0.3,0.2-0.5,0.2l0.7,0.9h-0.3L73.1,23l0.3,0
				c0.2,0,0.4-0.1,0.5-0.2c0.1-0.1,0.1-0.2,0.1-0.4c0-0.1-0.1-0.3-0.2-0.4C73.8,22,73.6,22,73.3,22h-0.4v2.1h-0.2v-2.4h0.6
				c0.2,0,0.4,0,0.5,0.1c0.2,0.1,0.3,0.2,0.4,0.3C74.2,22.2,74.3,22.4,74.3,22.5z"/>
			<path fill="#FFFFFF" d="M74.4,24.1l1-2.4h0.3l1,2.4h-0.3L76,23.3H75l-0.3,0.8H74.4z M75.1,23.1H76L75.5,22L75.1,23.1z"/>
			<path fill="#FFFFFF" d="M77,23.5c0,0.1,0,0.2,0.1,0.3c0.1,0.1,0.2,0.1,0.4,0.1c0.1,0,0.2,0,0.3-0.1c0.1-0.1,0.1-0.2,0.1-0.4
				c0-0.1,0-0.2-0.1-0.3c-0.1-0.1-0.2-0.2-0.5-0.2c-0.4-0.1-0.6-0.3-0.6-0.6c0-0.2,0.1-0.3,0.2-0.5c0.1-0.1,0.3-0.2,0.5-0.2
				c0.2,0,0.3,0.1,0.5,0.2c0.1,0.1,0.2,0.3,0.2,0.5h-0.2c0-0.1,0-0.2-0.1-0.3c-0.1-0.1-0.2-0.1-0.3-0.1c-0.1,0-0.2,0-0.3,0.1
				c-0.1,0.1-0.1,0.2-0.1,0.3c0,0.1,0,0.2,0.1,0.2c0.1,0.1,0.2,0.1,0.4,0.2c0.4,0.1,0.6,0.3,0.6,0.7c0,0.2-0.1,0.4-0.2,0.5
				c-0.1,0.1-0.3,0.2-0.5,0.2c-0.2,0-0.4-0.1-0.5-0.2c-0.1-0.1-0.2-0.3-0.2-0.5H77z"/>
		</g>
		<g>
			<path fill="#FFFFFF" d="M85.2,7.3c0.1,0,0.2,0,0.3,0c0.7,0,1.2-0.6,1.2-1.2c0-0.7-0.6-1.2-1.2-1.2c-0.7,0-1.2,0.6-1.2,1.2
				c0,0.2,0.1,0.5,0.2,0.6c-1.6,2-3.7,1.6-4.4,1.3c-0.1,0-0.3,0-0.3,0.2l-0.1,0.3c-0.1,0.1,0,0.3,0.2,0.4c0.3,0.1,0.9,0.3,1.7,0.3
				C82.6,9.2,84.1,8.8,85.2,7.3z"/>
			<path fill="#FFFFFF" d="M84.9,14.8c-0.3,0.5-0.1,1.1,0.4,1.4c0.5,0.3,1.1,0.1,1.4-0.4c0.3-0.5,0.1-1.1-0.4-1.4
				c-0.2-0.1-0.4-0.1-0.5-0.1c-0.2-0.5-0.3-1-0.3-1.4c0-0.1-0.1-0.2-0.2-0.3l-0.1,0c-0.2-0.1-0.4,0-0.4,0.2c-0.1,0.5,0,0.9,0.3,1.7
				C85,14.6,84.9,14.7,84.9,14.8z"/>
			<path fill="#FFFFFF" d="M90.4,7.5c-0.7,0-1.2,0.6-1.2,1.3c0,0.7,0.6,1.2,1.3,1.2c0.2,0,0.5-0.1,0.6-0.2c1.5,1.1,1.7,2.4,1.7,3.4
				c-0.6,0.1-1.1,0.6-1,1.3c0,0.7,0.6,1.2,1.3,1.2c0.7,0,1.2-0.6,1.2-1.3c0-0.4-0.2-0.7-0.5-1c0-0.2,0-0.5,0-0.7
				c-0.1-1.2-0.5-2.6-2.1-3.7c0-0.1,0-0.2,0-0.3C91.7,7.9,91.1,7.4,90.4,7.5z"/>
			<path fill="#FFFFFF" d="M95.9,7.9c-0.4-0.2-0.6-0.5-0.8-0.9c-1-2.5-3.4-4-6-3.8c-0.3,0-0.5-0.1-0.7-0.3c-1.7-2.1-4.5-3.2-7.2-2.7
				c-2.1,0.4-3.9,1.7-5,3.5c-0.5,0.7-0.8,1.5-0.9,2.4c0,0.1,0,0.2,0,0.3c-0.1,0.4-0.1,0.9-0.1,1.3c0,0.4,0.1,0.6,0.5,0.5
				c0.3,0,0.6-0.1,0.6-0.5c0-1.1,0.2-2.1,0.7-3c2.2-4.2,8-4.6,10.8-0.8c0.2,0.3,0.4,0.4,0.9,0.4c2.6-0.4,5,1.1,5.8,3.6
				c0.1,0.4,0.3,0.5,0.6,0.7c2.1,1,3.1,3.1,2.9,5.4c-0.3,2.1-1.9,3.9-4,4.4c-0.4,0.1-0.6,0.3-0.9,0.6c-1.3,1.4-3.3,1.9-5.1,1.2
				c-1-0.4-1.2-0.7-1.7-0.9c-0.6-0.2-0.8,0.5-0.8,0.5c-0.1,0.8-0.8,3.1-3.7,4.1c0.9-1.7,1.5-4.3-0.3-6.3c-0.1-0.2-0.4-0.1-0.5,0
				l-0.1,0.2c-0.1,0.1-0.1,0.4,0,0.5c0.9,1,1.2,2.3,0.7,3.8c-0.4,1.3-1.1,2.3-1.1,2.3l0,0.1c-0.2,0.3,0,0.8,0.4,0.7l0.1,0
				c3.6-0.7,4.9-3.1,5.4-4.5c0-0.1,0.2-0.2,0.3-0.1c2.2,1.2,5,1.1,7-0.8c0.3-0.3,0.7-0.5,1-0.6c2.4-0.8,3.9-2.4,4.3-5
				C99.2,11.4,98.2,9.3,95.9,7.9z"/>
		</g>
		<g>
			<path fill="#FFFFFF" d="M11.5,11.1c-0.2-0.2-0.5-0.4-0.7-0.5c-0.3-0.1-0.6-0.2-0.9-0.2H8.6c-0.4,0-0.8,0.1-1.1,0.3
				c-0.3,0.2-0.6,0.4-0.8,0.7c-0.2-0.3-0.5-0.5-0.8-0.7c-0.3-0.2-0.7-0.3-1.1-0.3H3.4c-0.3,0-0.6,0.1-0.9,0.2
				c-0.3,0.1-0.5,0.3-0.7,0.5c-0.2,0.2-0.4,0.5-0.5,0.8c-0.1,0.3-0.2,0.6-0.2,0.9v6.7h0.9v-6.7c0-0.2,0-0.4,0.1-0.6
				c0.1-0.2,0.2-0.4,0.3-0.5c0.1-0.1,0.3-0.3,0.5-0.3c0.2-0.1,0.4-0.1,0.6-0.1h1.1c0.2,0,0.4,0,0.6,0.1c0.2,0.1,0.4,0.2,0.5,0.3
				C5.9,11.8,6,12,6.1,12.2c0.1,0.2,0.1,0.4,0.1,0.6v6.7h0.9v-6.7c0-0.2,0-0.4,0.1-0.6c0.1-0.2,0.2-0.4,0.3-0.5
				c0.1-0.1,0.3-0.3,0.5-0.3c0.2-0.1,0.4-0.1,0.6-0.1h1.1c0.2,0,0.4,0,0.6,0.1c0.2,0.1,0.4,0.2,0.5,0.3c0.1,0.1,0.3,0.3,0.3,0.5
				c0.1,0.2,0.1,0.4,0.1,0.6v6.7h0.9v-6.7c0-0.3-0.1-0.6-0.2-0.9C11.9,11.6,11.8,11.3,11.5,11.1z"/>
			<path fill="#FFFFFF" d="M14.7,10.6c-0.3,0.1-0.5,0.3-0.7,0.5c-0.2,0.2-0.4,0.5-0.5,0.8c-0.1,0.3-0.2,0.6-0.2,0.9v4.4
				c0,0.3,0.1,0.6,0.2,0.9c0.1,0.3,0.3,0.5,0.5,0.7c0.2,0.2,0.5,0.4,0.7,0.5c0.3,0.1,0.6,0.2,0.9,0.2h6.1v-0.8h-6
				c-0.2,0-0.4,0-0.6-0.1c-0.2-0.1-0.4-0.2-0.5-0.3c-0.1-0.1-0.3-0.3-0.3-0.5c-0.1-0.2-0.1-0.4-0.1-0.6v-2h7.6v-0.8h-7.6v-1.5
				c0-0.2,0-0.4,0.1-0.6c0.1-0.2,0.2-0.4,0.3-0.5c0.1-0.1,0.3-0.3,0.5-0.3c0.2-0.1,0.4-0.1,0.6-0.1h6v-0.8h-6.1
				C15.3,10.4,14.9,10.5,14.7,10.6z"/>
			<path fill="#FFFFFF" d="M31.1,17.7c0,0.3-0.1,0.5-0.3,0.8c-0.2,0.2-0.4,0.3-0.7,0.3c-0.3,0-0.5-0.1-0.6-0.3
				c-0.2-0.2-0.3-0.5-0.5-0.9c0-0.1-0.1-0.2-0.2-0.5c-0.1-0.2-0.2-0.5-0.4-0.9c-0.1-0.3-0.3-0.7-0.5-1.1c-0.2-0.4-0.3-0.8-0.5-1.1
				c-0.2-0.4-0.3-0.7-0.4-1c-0.1-0.3-0.2-0.6-0.3-0.7c-0.2-0.4-0.3-0.7-0.5-0.9c-0.2-0.2-0.3-0.4-0.5-0.6c-0.2-0.1-0.4-0.2-0.5-0.3
				c-0.2-0.1-0.4-0.1-0.7-0.1c-0.3,0-0.5,0-0.7,0.1c-0.2,0.1-0.4,0.2-0.6,0.4c-0.2,0.2-0.3,0.4-0.4,0.6c-0.1,0.2-0.1,0.5-0.1,0.7
				v7.3h0.9v-7.3c0-0.3,0.1-0.5,0.3-0.7c0.2-0.2,0.4-0.3,0.7-0.3c0.2,0,0.4,0.1,0.6,0.3c0.2,0.2,0.3,0.4,0.5,0.8
				c0.1,0.1,0.2,0.3,0.3,0.6c0.1,0.3,0.3,0.6,0.4,1c0.2,0.4,0.3,0.8,0.5,1.2c0.2,0.4,0.4,0.8,0.5,1.2c0.2,0.4,0.3,0.7,0.4,1
				c0.1,0.3,0.2,0.5,0.3,0.6c0.1,0.1,0.1,0.3,0.2,0.5c0.1,0.2,0.2,0.4,0.4,0.5c0.2,0.2,0.4,0.3,0.6,0.4c0.2,0.1,0.5,0.2,0.9,0.2
				c0.3,0,0.5,0,0.7-0.1c0.2-0.1,0.4-0.2,0.6-0.4c0.2-0.2,0.3-0.4,0.4-0.6c0.1-0.2,0.1-0.5,0.1-0.7v-7.3l-0.9,0V17.7z"/>
			<polygon fill="#FFFFFF" points="33,11.2 37.2,11.2 37.2,19.5 38.1,19.5 38.1,11.2 42.3,11.2 42.3,10.5 33,10.5 			"/>
			<path fill="#FFFFFF" d="M44.3,12.2c0.1-0.2,0.2-0.4,0.3-0.5c0.1-0.1,0.3-0.3,0.5-0.3c0.2-0.1,0.4-0.1,0.6-0.1h6v-0.8h-6.1
				c-0.3,0-0.6,0.1-0.9,0.2c-0.3,0.1-0.5,0.3-0.7,0.5c-0.2,0.2-0.4,0.5-0.5,0.8c-0.1,0.3-0.2,0.6-0.2,0.9v4.4c0,0.3,0.1,0.6,0.2,0.9
				c0.1,0.3,0.3,0.5,0.5,0.7c0.2,0.2,0.5,0.4,0.7,0.5c0.3,0.1,0.6,0.2,0.9,0.2h6.1v-0.8h-6c-0.2,0-0.4,0-0.6-0.1
				c-0.2-0.1-0.4-0.2-0.5-0.3c-0.1-0.1-0.3-0.3-0.3-0.5c-0.1-0.2-0.1-0.4-0.1-0.6v-2h7.6v-0.8h-7.6v-1.5
				C44.2,12.6,44.2,12.4,44.3,12.2z"/>
		</g>
		<g>
			<path fill="#FFFFFF" d="M61.1,17.7c0,0.3-0.1,0.5-0.2,0.7c-0.1,0.2-0.4,0.3-0.6,0.3c-0.2,0-0.4-0.1-0.5-0.2
				c-0.1-0.2-0.3-0.5-0.5-0.9c0-0.1-0.1-0.2-0.2-0.5c-0.1-0.2-0.2-0.5-0.4-0.9c-0.1-0.3-0.3-0.7-0.5-1.1c-0.2-0.4-0.3-0.8-0.5-1.1
				c-0.2-0.4-0.3-0.7-0.4-1c-0.1-0.3-0.2-0.6-0.3-0.7c-0.2-0.4-0.3-0.7-0.5-0.9c-0.2-0.2-0.3-0.4-0.5-0.6c-0.2-0.2-0.4-0.3-0.6-0.3
				c-0.2-0.1-0.4-0.1-0.7-0.1c-0.3,0-0.6,0.1-0.8,0.2c-0.2,0.1-0.4,0.2-0.6,0.4c-0.2,0.2-0.3,0.4-0.4,0.6c-0.1,0.2-0.1,0.5-0.1,0.8
				v7.4h1.1v-7.4c0-0.3,0.1-0.5,0.2-0.7c0.2-0.2,0.4-0.3,0.6-0.3c0.2,0,0.4,0.1,0.5,0.2c0.1,0.2,0.3,0.4,0.5,0.8
				c0.1,0.1,0.2,0.3,0.3,0.6c0.1,0.3,0.3,0.6,0.4,1c0.2,0.4,0.3,0.8,0.5,1.2l1,2.2c0.1,0.3,0.2,0.5,0.3,0.6c0.1,0.1,0.1,0.3,0.2,0.5
				c0.1,0.2,0.2,0.4,0.4,0.6c0.2,0.2,0.4,0.3,0.6,0.5c0.3,0.1,0.6,0.2,0.9,0.2c0.3,0,0.5-0.1,0.8-0.2c0.2-0.1,0.4-0.2,0.6-0.4
				c0.2-0.2,0.3-0.4,0.4-0.6c0.1-0.2,0.2-0.5,0.2-0.8v-7.4l-1.1,0V17.7z"/>
			<path fill="#FFFFFF" d="M64.4,10.5c-0.3,0.1-0.6,0.3-0.8,0.5c-0.2,0.2-0.4,0.5-0.5,0.8c-0.1,0.3-0.2,0.6-0.2,1v4.4
				c0,0.3,0.1,0.7,0.2,1c0.1,0.3,0.3,0.6,0.5,0.8c0.2,0.2,0.5,0.4,0.8,0.5c0.3,0.1,0.6,0.2,1,0.2h6.2v-1h-6.1c-0.2,0-0.4,0-0.6-0.1
				c-0.2-0.1-0.3-0.2-0.5-0.3c-0.1-0.1-0.2-0.3-0.3-0.5c-0.1-0.2-0.1-0.4-0.1-0.6v-1.9h7.6v-1h-7.6v-1.4c0-0.2,0-0.4,0.1-0.6
				c0.1-0.2,0.2-0.3,0.3-0.5c0.1-0.1,0.3-0.2,0.5-0.3c0.2-0.1,0.4-0.1,0.6-0.1h6.1v-1h-6.2C65.1,10.3,64.7,10.4,64.4,10.5z"/>
			<polygon fill="#FFFFFF" points="72.4,10.3 72.4,11.4 76.6,11.4 76.6,19.7 77.7,19.7 77.7,11.4 82,11.4 82,10.3 			"/>
		</g>
	</g>
</g>
</svg>
