<svg id="Layer_1" data-name="Layer 1" xmlns="http://www.w3.org/2000/svg" viewBox="0 0 195.66 50"><defs><style>.cls-1{fill:#333;}.cls-2{fill:#056d97;}</style></defs><title>logo-nav</title><path class="cls-1" d="M4455.42,57h1.41a1.83,1.83,0,0,1,1.26.38,1.44,1.44,0,0,1,0,2.07,2,2,0,0,1-1.31.37h-0.88v1.89h-0.47V57Zm0.47,0.42v2h1a1.35,1.35,0,0,0,.83-0.25,0.86,0.86,0,0,0,.34-0.74,0.89,0.89,0,0,0-.31-0.72,1.48,1.48,0,0,0-1-.26h-0.88Z" transform="translate(-4391.94 -13.5)"/><path class="cls-1" d="M4459.27,60.42a1,1,0,0,0,.26.68,0.92,0.92,0,0,0,.71.28,1,1,0,0,0,.68-0.25,0.88,0.88,0,0,0,.29-0.7,0.85,0.85,0,0,0-.22-0.56,2,2,0,0,0-.93-0.46,1.26,1.26,0,0,1-1.11-1.21,1.16,1.16,0,0,1,.38-0.9,1.37,1.37,0,0,1,1-.35,1.24,1.24,0,0,1,.93.38,1.26,1.26,0,0,1,.37.91h-0.47a0.83,0.83,0,0,0-.25-0.61,0.78,0.78,0,0,0-.59-0.26,0.81,0.81,0,0,0-.62.24,0.83,0.83,0,0,0-.23.59,0.67,0.67,0,0,0,.2.5,2.19,2.19,0,0,0,.86.37,1.37,1.37,0,0,1,1.19,1.37,1.28,1.28,0,0,1-.42,1,1.55,1.55,0,0,1-2.05,0,1.32,1.32,0,0,1-.41-1h0.47Z" transform="translate(-4391.94 -13.5)"/><path class="cls-1" d="M4462.34,57h0.47v4.71h-0.47V57Z" transform="translate(-4391.94 -13.5)"/><path class="cls-1" d="M4467.68,60.52h0.53a2.48,2.48,0,0,1-3.91.59,2.26,2.26,0,0,1-.73-1.69,2.37,2.37,0,0,1,.72-1.76,2.41,2.41,0,0,1,1.75-.71,2.34,2.34,0,0,1,1.25.36,2.23,2.23,0,0,1,.87.93h-0.53a2,2,0,0,0-.71-0.63,1.83,1.83,0,0,0-.88-0.24,1.92,1.92,0,0,0-1.42.6,2,2,0,0,0-.59,1.44,1.88,1.88,0,0,0,.6,1.39A2,2,0,0,0,4467.68,60.52Z" transform="translate(-4391.94 -13.5)"/><path class="cls-1" d="M4468.73,59.41a2.36,2.36,0,0,1,.73-1.76,2.53,2.53,0,0,1,3.52,0,2.35,2.35,0,0,1,0,3.43,2.52,2.52,0,0,1-3.52,0A2.28,2.28,0,0,1,4468.73,59.41Zm0.47,0a1.9,1.9,0,0,0,.59,1.39,2,2,0,0,0,2.86,0,2,2,0,0,0,0-2.84,2,2,0,0,0-1.41-.59,1.94,1.94,0,0,0-1.43.6A2,2,0,0,0,4469.21,59.41Z" transform="translate(-4391.94 -13.5)"/><path class="cls-1" d="M4474,57h2.65v0.42h-1.09v4.29h-0.47V57.44H4474V57Z" transform="translate(-4391.94 -13.5)"/><path class="cls-1" d="M4477.13,61.73V57h2.56v0.42h-2.09v1.7h2v0.43h-2v1.74h2.09v0.42h-2.56Z" transform="translate(-4391.94 -13.5)"/><path class="cls-1" d="M4483.74,58.52a1.45,1.45,0,0,1-.37,1,1.4,1.4,0,0,1-1,.47l1.32,1.77h-0.59l-1.59-2.14H4482a1.36,1.36,0,0,0,1-.32,1,1,0,0,0,.3-0.73,1.08,1.08,0,0,0-.3-0.74,1.39,1.39,0,0,0-1.08-.34H4481v4.29h-0.47V57h1.2a3.45,3.45,0,0,1,1,.1,1.46,1.46,0,0,1,.85.65A1.51,1.51,0,0,1,4483.74,58.52Z" transform="translate(-4391.94 -13.5)"/><path class="cls-1" d="M4484,61.73l2-4.71h0.53l2,4.71H4488l-0.68-1.6h-2.13l-0.68,1.6H4484Zm1.35-2h1.78l-0.88-2.16Z" transform="translate(-4391.94 -13.5)"/><path class="cls-1" d="M4489.13,57h1.41a1.82,1.82,0,0,1,1.26.38,1.3,1.3,0,0,1,.44,1,1.29,1.29,0,0,1-.44,1,2,2,0,0,1-1.31.37h-0.88v1.89h-0.47V57Zm0.47,0.42v2h1a1.35,1.35,0,0,0,.83-0.25,0.86,0.86,0,0,0,.34-0.74,0.89,0.89,0,0,0-.31-0.72,1.49,1.49,0,0,0-1-.26h-0.88Z" transform="translate(-4391.94 -13.5)"/><path class="cls-1" d="M4492.89,57h0.47v4.71h-0.47V57Z" transform="translate(-4391.94 -13.5)"/><path class="cls-1" d="M4493.92,61.73l2-4.71h0.53l2,4.71h-0.52l-0.68-1.6h-2.13l-0.68,1.6h-0.49Zm1.35-2h1.78l-0.88-2.16Z" transform="translate(-4391.94 -13.5)"/><path class="cls-1" d="M4500.87,60.42a1,1,0,0,0,.26.68,0.92,0.92,0,0,0,.71.28,1,1,0,0,0,.68-0.25,0.88,0.88,0,0,0,.29-0.7,0.83,0.83,0,0,0-.22-0.56,2,2,0,0,0-.93-0.46,1.26,1.26,0,0,1-1.11-1.21,1.16,1.16,0,0,1,.39-0.9,1.37,1.37,0,0,1,1-.35,1.24,1.24,0,0,1,.93.38,1.26,1.26,0,0,1,.37.91h-0.47a0.84,0.84,0,0,0-.25-0.61,0.79,0.79,0,0,0-.59-0.26,0.8,0.8,0,0,0-.62.24,0.83,0.83,0,0,0-.23.59,0.67,0.67,0,0,0,.21.5,2.18,2.18,0,0,0,.86.37,1.37,1.37,0,0,1,1.19,1.37,1.27,1.27,0,0,1-.42,1,1.54,1.54,0,0,1-2.05,0,1.32,1.32,0,0,1-.41-1h0.47Z" transform="translate(-4391.94 -13.5)"/><path class="cls-1" d="M4504,57h0.47v4.71H4504V57Z" transform="translate(-4391.94 -13.5)"/><path class="cls-1" d="M4505.38,57H4506l2.64,3.92V57h0.47v4.71h-0.47l-2.8-4.16v4.16h-0.47V57Z" transform="translate(-4391.94 -13.5)"/><path class="cls-1" d="M4511.81,61.73V57h2.36v0.42h-1.89v1.7h1.81v0.43h-1.81v2.16h-0.47Z" transform="translate(-4391.94 -13.5)"/><path class="cls-1" d="M4518.09,58.52a1.45,1.45,0,0,1-.37,1,1.4,1.4,0,0,1-1,.47l1.32,1.77h-0.59l-1.59-2.14h0.52a1.36,1.36,0,0,0,1-.32,1,1,0,0,0,.3-0.73,1.08,1.08,0,0,0-.3-0.74,1.39,1.39,0,0,0-1.08-.34h-0.87v4.29h-0.47V57h1.2a3.45,3.45,0,0,1,1,.1,1.46,1.46,0,0,1,.85.65A1.53,1.53,0,0,1,4518.09,58.52Z" transform="translate(-4391.94 -13.5)"/><path class="cls-1" d="M4518.57,59.41a2.36,2.36,0,0,1,.73-1.76,2.53,2.53,0,0,1,3.52,0,2.36,2.36,0,0,1,0,3.43,2.52,2.52,0,0,1-3.52,0A2.28,2.28,0,0,1,4518.57,59.41Zm0.47,0a1.89,1.89,0,0,0,.59,1.39,2,2,0,0,0,2.86,0,1.93,1.93,0,0,0,.6-1.42,1.9,1.9,0,0,0-.61-1.42,2,2,0,0,0-1.41-.59,1.94,1.94,0,0,0-1.43.6A2,2,0,0,0,4519,59.41Z" transform="translate(-4391.94 -13.5)"/><path class="cls-1" d="M4524.29,57h0.64l2.64,3.92V57H4528v4.71h-0.47l-2.8-4.16v4.16h-0.47V57Z" transform="translate(-4391.94 -13.5)"/><path class="cls-1" d="M4528.57,57h2.65v0.42h-1.09v4.29h-0.47V57.44h-1.09V57Z" transform="translate(-4391.94 -13.5)"/><path class="cls-1" d="M4531.67,61.73V57h2.56v0.42h-2.08v1.7h2v0.43h-2v1.74h2.08v0.42h-2.56Z" transform="translate(-4391.94 -13.5)"/><path class="cls-1" d="M4538.28,58.52a1.44,1.44,0,0,1-.37,1,1.39,1.39,0,0,1-1,.47l1.32,1.77h-0.59L4536,59.59h0.51a1.36,1.36,0,0,0,1-.32,1,1,0,0,0,.3-0.73,1.09,1.09,0,0,0-.3-0.74,1.39,1.39,0,0,0-1.08-.34h-0.88v4.29h-0.47V57h1.2a3.47,3.47,0,0,1,1,.1,1.46,1.46,0,0,1,.85.65A1.52,1.52,0,0,1,4538.28,58.52Z" transform="translate(-4391.94 -13.5)"/><path class="cls-1" d="M4538.56,61.73l2-4.71h0.53l2,4.71h-0.51l-0.68-1.6h-2.13l-0.68,1.6h-0.49Zm1.35-2h1.78l-0.88-2.16Z" transform="translate(-4391.94 -13.5)"/><path class="cls-1" d="M4543.76,60.42a1,1,0,0,0,.26.68,0.91,0.91,0,0,0,.71.28,1,1,0,0,0,.68-0.25,0.88,0.88,0,0,0,.29-0.7,0.84,0.84,0,0,0-.22-0.56,2,2,0,0,0-.93-0.46,1.26,1.26,0,0,1-1.11-1.21,1.16,1.16,0,0,1,.38-0.9,1.37,1.37,0,0,1,1-.35,1.24,1.24,0,0,1,.92.38,1.26,1.26,0,0,1,.37.91h-0.47a0.84,0.84,0,0,0-.25-0.61,0.79,0.79,0,0,0-.59-0.26,0.81,0.81,0,0,0-.62.24,0.83,0.83,0,0,0-.23.59,0.66,0.66,0,0,0,.21.5,2.16,2.16,0,0,0,.86.37,1.37,1.37,0,0,1,1.19,1.37,1.28,1.28,0,0,1-.42,1,1.54,1.54,0,0,1-2,0,1.32,1.32,0,0,1-.4-1h0.47Z" transform="translate(-4391.94 -13.5)"/><path class="cls-2" d="M4560.23,28a2.51,2.51,0,1,0-1.53-1.12,7.7,7.7,0,0,1-8.73,2.66,0.56,0.56,0,0,0-.69.38l-0.29.66a0.53,0.53,0,0,0,.32.72,11.32,11.32,0,0,0,3.36.52A9.19,9.19,0,0,0,4560.23,28Z" transform="translate(-4391.94 -13.5)"/><path class="cls-2" d="M4559.51,43.07a2.08,2.08,0,1,0,1.75-1,6.74,6.74,0,0,1-.51-2.78,0.61,0.61,0,0,0-.39-0.59l-0.24-.09a0.61,0.61,0,0,0-.82.46c-0.17,1,0,1.73.65,3.49A2.05,2.05,0,0,0,4559.51,43.07Z" transform="translate(-4391.94 -13.5)"/><path class="cls-2" d="M4570.59,28.41a2.49,2.49,0,1,0,1.52,4.54,7.47,7.47,0,0,1,3.38,6.82,2.49,2.49,0,1,0,1.84.39,10.94,10.94,0,0,0,0-1.43,9.2,9.2,0,0,0-4.21-7.36A2.47,2.47,0,0,0,4570.59,28.41Z" transform="translate(-4391.94 -13.5)"/><path class="cls-2" d="M4581.62,29.26a3.68,3.68,0,0,1-1.54-1.81A12.17,12.17,0,0,0,4568,19.81a1.46,1.46,0,0,1-1.37-.64,14.94,14.94,0,0,0-14.36-5.42,15.11,15.11,0,0,0-9.9,6.92,14.37,14.37,0,0,0-1.88,4.81c0,0.18-.07.36-0.09,0.54-0.13.86-.12,1.71-0.17,2.57a0.84,0.84,0,0,0,1,1.07c0.68,0,1.24-.19,1.21-1.07a11.92,11.92,0,0,1,1.36-6,12.57,12.57,0,0,1,21.51-1.52,1.47,1.47,0,0,0,1.72.71A10.25,10.25,0,0,1,4578.71,29a2.11,2.11,0,0,0,1.25,1.39,10.39,10.39,0,0,1-2.32,19.48,3.24,3.24,0,0,0-1.79,1.14,9.2,9.2,0,0,1-10.22,2.36c-2.09-.81-2.37-1.37-3.48-1.79s-1.63,1.09-1.63,1.09a11,11,0,0,1-7.38,8.28c1.83-3.47,3.07-8.69-.66-12.59a0.74,0.74,0,0,0-1.09,0l-0.27.3a0.74,0.74,0,0,0,0,1c1.86,2,2.35,4.5,1.45,7.57a16.4,16.4,0,0,1-2.3,4.66l-0.08.11a0.9,0.9,0,0,0,.89,1.42l0.13,0c7.23-1.44,9.85-6.25,10.77-9a0.47,0.47,0,0,1,.68-0.26,12.35,12.35,0,0,0,14.1-1.52,6,6,0,0,1,2.06-1.17c4.83-1.6,7.89-4.88,8.61-10C4588.2,36.24,4586.12,32.12,4581.62,29.26Z" transform="translate(-4391.94 -13.5)"/><path class="cls-1" d="M4412.85,35.76a4.77,4.77,0,0,0-1.5-1,4.66,4.66,0,0,0-1.84-.36h-2.6a4.54,4.54,0,0,0-2.21.54,4.68,4.68,0,0,0-1.62,1.45,4.91,4.91,0,0,0-1.65-1.45,4.54,4.54,0,0,0-2.21-.54h-2.6a4.57,4.57,0,0,0-1.83.36,4.79,4.79,0,0,0-1.49,1,4.71,4.71,0,0,0-1,1.5,4.64,4.64,0,0,0-.37,1.84V52.59h1.71V39.13a3.06,3.06,0,0,1,.25-1.24,3.19,3.19,0,0,1,1.69-1.69,3.05,3.05,0,0,1,1.24-.25h2.22a2.94,2.94,0,0,1,1.22.25,3.46,3.46,0,0,1,1,.68,3.13,3.13,0,0,1,.69,1,3.07,3.07,0,0,1,.25,1.24V52.59h1.71V39.13a3.06,3.06,0,0,1,.25-1.24,3.21,3.21,0,0,1,.68-1,3.25,3.25,0,0,1,1-.68,3,3,0,0,1,1.22-.25h2.24a3,3,0,0,1,1.22.25,3.22,3.22,0,0,1,1.68,1.69,3.06,3.06,0,0,1,.25,1.24V52.59h1.74V39.1A4.69,4.69,0,0,0,4412.85,35.76Z" transform="translate(-4391.94 -13.5)"/><path class="cls-1" d="M4419.1,34.75a4.74,4.74,0,0,0-2.49,2.51,4.61,4.61,0,0,0-.37,1.84v8.77a4.61,4.61,0,0,0,.37,1.84,4.74,4.74,0,0,0,2.49,2.51,4.53,4.53,0,0,0,1.83.37h12.2V51h-12a3,3,0,0,1-1.22-.25,3.22,3.22,0,0,1-1.68-1.69,3.05,3.05,0,0,1-.25-1.23V43.79h15.17V42.23H4418v-3.1a3.06,3.06,0,0,1,.25-1.24,3.22,3.22,0,0,1,1.68-1.69,3,3,0,0,1,1.22-.25h12V34.39h-12.2A4.56,4.56,0,0,0,4419.1,34.75Z" transform="translate(-4391.94 -13.5)"/><path class="cls-1" d="M4452,48.93a2.26,2.26,0,0,1-.52,1.5,1.84,1.84,0,0,1-1.5.62,1.52,1.52,0,0,1-1.29-.59,9.94,9.94,0,0,1-1-1.78c-0.07-.13-0.21-0.45-0.42-0.93L4446.55,46l-1-2.17q-0.53-1.17-1-2.28l-0.88-2.05L4443.06,38a12.79,12.79,0,0,0-.93-1.82,4.75,4.75,0,0,0-1-1.12,2.77,2.77,0,0,0-1.1-.57,5.43,5.43,0,0,0-1.35-.15,3.66,3.66,0,0,0-1.47.29,3.4,3.4,0,0,0-1.14.78,3.44,3.44,0,0,0-.72,1.16,4,4,0,0,0-.25,1.43V52.59h1.71V38a2.13,2.13,0,0,1,.56-1.48,1.9,1.9,0,0,1,1.49-.62,1.58,1.58,0,0,1,1.21.52,5.89,5.89,0,0,1,1,1.63q0.18,0.38.57,1.27l0.88,2q0.49,1.15,1,2.41l1,2.38,0.86,2c0.25,0.56.42,0.94,0.52,1.15s0.28,0.62.48,1a4.87,4.87,0,0,0,.78,1.07,4.23,4.23,0,0,0,1.18.86,3.88,3.88,0,0,0,1.74.35,3.45,3.45,0,0,0,1.41-.29,3.64,3.64,0,0,0,1.13-.78,3.7,3.7,0,0,0,1-2.58V34.41l-1.71,0V48.93Z" transform="translate(-4391.94 -13.5)"/><polygon class="cls-1" points="63.82 22.45 72.24 22.45 72.24 39.09 73.98 39.09 73.98 22.45 82.43 22.45 82.43 20.91 63.82 20.91 63.82 22.45"/><path class="cls-1" d="M4478.35,37.89a3.23,3.23,0,0,1,.68-1,3.28,3.28,0,0,1,1-.68,3,3,0,0,1,1.22-.25h12V34.39h-12.2a4.57,4.57,0,0,0-1.83.36,4.76,4.76,0,0,0-1.49,1,4.69,4.69,0,0,0-1,1.5,4.61,4.61,0,0,0-.37,1.84v8.77a4.61,4.61,0,0,0,.37,1.84,4.73,4.73,0,0,0,2.49,2.51,4.53,4.53,0,0,0,1.83.37h12.2V51h-12a3,3,0,0,1-1.22-.25,3.27,3.27,0,0,1-1-.68,3.23,3.23,0,0,1-.68-1,3.05,3.05,0,0,1-.25-1.23V43.79h15.17V42.23H4478.1v-3.1A3.06,3.06,0,0,1,4478.35,37.89Z" transform="translate(-4391.94 -13.5)"/><path class="cls-2" d="M4511.92,48.93a2,2,0,0,1-.46,1.33,1.59,1.59,0,0,1-1.3.52,1.26,1.26,0,0,1-1.08-.49,9.84,9.84,0,0,1-1-1.73q-0.1-.2-0.41-0.92t-0.76-1.73l-1-2.17c-0.35-.78-0.69-1.54-1-2.28l-0.88-2.05-0.63-1.47a13.09,13.09,0,0,0-1-1.85,5,5,0,0,0-1-1.18,3,3,0,0,0-1.2-.62,5.65,5.65,0,0,0-1.41-.16,4,4,0,0,0-1.58.31,3.61,3.61,0,0,0-2,2.09A4.27,4.27,0,0,0,4495,38v14.8h2.24V38a1.86,1.86,0,0,1,.49-1.3,1.64,1.64,0,0,1,1.29-.53,1.32,1.32,0,0,1,1,.43,5.73,5.73,0,0,1,.91,1.56c0.11,0.25.31,0.67,0.56,1.27l0.88,2q0.49,1.15,1,2.41l1.9,4.35c0.25,0.57.42,1,.51,1.14s0.27,0.6.49,1a5.23,5.23,0,0,0,.82,1.13,4.49,4.49,0,0,0,1.26.91,4.15,4.15,0,0,0,1.86.38,3.75,3.75,0,0,0,1.52-.31,3.93,3.93,0,0,0,2.32-3.6V34.15l-2.24,0V48.93Z" transform="translate(-4391.94 -13.5)"/><path class="cls-2" d="M4518.67,34.51a5,5,0,0,0-2.63,2.65,5,5,0,0,0-.38,1.94v8.77a5,5,0,0,0,3,4.59,4.81,4.81,0,0,0,1.93.39h12.46V50.76h-12.28a2.73,2.73,0,0,1-1.12-.23,3.07,3.07,0,0,1-.92-0.63,3,3,0,0,1-.63-0.93,2.82,2.82,0,0,1-.23-1.13V44h15.17V42h-15.17V39.13a2.82,2.82,0,0,1,.23-1.13,2.94,2.94,0,0,1,.62-0.93,3.06,3.06,0,0,1,.92-0.63,2.72,2.72,0,0,1,1.12-.23h12.28V34.13H4520.6A4.84,4.84,0,0,0,4518.67,34.51Z" transform="translate(-4391.94 -13.5)"/><polygon class="cls-2" points="142.61 20.65 142.61 22.71 151.03 22.71 151.03 39.35 153.29 39.35 153.29 22.71 161.74 22.71 161.74 20.65 142.61 20.65"/></svg>