<svg id="Layer_1" data-name="Layer 1" xmlns="http://www.w3.org/2000/svg" viewBox="0 0 80 80"><defs><style>.cls-1{fill:#fff;}.cls-2{fill:#3b5a63;}.cls-3{fill:#2a3f47;}</style></defs><title>plataforma-icon</title><circle class="cls-1" cx="40" cy="40" r="40"/><rect class="cls-2" x="34.37" y="55.35" width="11.97" height="5.63"/><path class="cls-3" d="M4596.53,2955.28h14.76a0.88,0.88,0,1,1,0,1.41h-14.76a0.88,0.88,0,1,1,0-1.41h0Zm0,0" transform="translate(-4563.55 -2895.01)"/><path class="cls-3" d="M4623.94,2917.33h-40.77a2.11,2.11,0,0,0-2.12,2.12v28.39c0,1.17,45,1.17,45,0v-28.39A2.11,2.11,0,0,0,4623.94,2917.33Zm0,26h-40.77v-23.89h40.77v23.89Z" transform="translate(-4563.55 -2895.01)"/><rect class="cls-3" x="34.37" y="55.31" width="11.97" height="1.14"/><path class="cls-2" d="M4581.05,2948.29a2.11,2.11,0,0,0,2.12,2.11h40.77a2.11,2.11,0,0,0,2.11-2.11v-2.79h-45v2.79Zm0,0" transform="translate(-4563.55 -2895.01)"/></svg>