<svg id="Layer_1" data-name="Layer 1" xmlns="http://www.w3.org/2000/svg" viewBox="0 0 80 80"><defs><style>.cls-1{fill:#fff;}.cls-2{fill:#2a3f47;}</style></defs><title>precio-icon</title><circle class="cls-1" cx="40" cy="40" r="40"/><path class="cls-2" d="M4614,2837a12.81,12.81,0,0,1-7.2,3.46v5.39H4601v-5.2a19.74,19.74,0,0,1-10.54-3.72l2.43-5.34a17,17,0,0,0,8.63,3.29v-8.58a34.51,34.51,0,0,1-5.43-1.86,9.76,9.76,0,0,1-3.69-2.93,8.12,8.12,0,0,1-1.5-5.12,9.08,9.08,0,0,1,2.79-6.65,13.11,13.11,0,0,1,7.32-3.55v-5.34h5.82v5.29a23.57,23.57,0,0,1,5.15,1.31,12.48,12.48,0,0,1,4,2.31l-2.43,5.34a17.41,17.41,0,0,0-7.15-3.15v8.87a30,30,0,0,1,5.29,1.74,9.35,9.35,0,0,1,3.6,2.88,8,8,0,0,1,1.45,5A9,9,0,0,1,4614,2837Zm-14.85-19a6.54,6.54,0,0,0,2.36,1.41v-7.34a4.66,4.66,0,0,0-2.36,1.41,3.58,3.58,0,0,0-.83,2.41A2.87,2.87,0,0,0,4599.14,2818Zm10.08,12.75a2.49,2.49,0,0,0-.74-1.83,6.42,6.42,0,0,0-2.17-1.31v6.87A3.6,3.6,0,0,0,4609.22,2830.79Z" transform="translate(-4563.55 -2783.74)"/></svg>