<svg id="Layer_1" data-name="Layer 1" xmlns="http://www.w3.org/2000/svg" viewBox="0 0 50 50"><defs><style>.cls-1{fill:#4db1ad;}</style></defs><title>twitter</title><path class="cls-1" d="M5019.94,4212.93a25,25,0,1,0,25,25,25,25,0,0,0-25-25h0Zm11.16,19.28c0,0.25,0,.5,0,0.75,0,7.6-5.79,16.37-16.37,16.37a16.24,16.24,0,0,1-8.82-2.59,11.57,11.57,0,0,0,8.52-2.38,5.76,5.76,0,0,1-5.37-4,5.53,5.53,0,0,0,1.08.1,5.69,5.69,0,0,0,1.51-.2,5.75,5.75,0,0,1-4.62-5.64,0.37,0.37,0,0,1,0-.07,5.68,5.68,0,0,0,2.61.72,5.76,5.76,0,0,1-1.78-7.68,16.34,16.34,0,0,0,11.86,6,5.76,5.76,0,0,1,9.8-5.25,11.37,11.37,0,0,0,3.66-1.4,5.78,5.78,0,0,1-2.53,3.19,11.4,11.4,0,0,0,3.3-.9,11.71,11.71,0,0,1-2.87,3h0Zm0,0" transform="translate(-4994.94 -4212.93)"/></svg>