<svg id="Layer_1" data-name="Layer 1" xmlns="http://www.w3.org/2000/svg" viewBox="0 0 50 50"><defs><style>.cls-1{fill:#4db1ad;}</style></defs><title>youtube</title><polygon class="cls-1" points="22.86 29.56 30.1 24.78 22.86 20 22.86 29.56"/><path class="cls-1" d="M5139.94,4213a25,25,0,1,0,25,25A25,25,0,0,0,5139.94,4213Zm13.08,20.18v10.17a3.79,3.79,0,0,1-3.79,3.79h-17.79a3.79,3.79,0,0,1-3.79-3.79v-10.17a3.79,3.79,0,0,1,3.79-3.79h17.79a3.79,3.79,0,0,1,3.79,3.79h0Z" transform="translate(-5114.94 -4213)"/></svg>